<svg xmlns="http://www.w3.org/2000/svg" viewBox="0 0 140.45 53.2"><defs><style>.cls-1,.cls-2{fill:#fff;}.cls-2{isolation:isolate;font-size:12px;font-family:Fieldwork-Geo-Light, Fieldwork;font-weight:300;letter-spacing:0.2em;}</style></defs><g id="Layer_2" data-name="Layer 2"><g id="Layer_1-2" data-name="Layer 1"><path class="cls-1" d="M136.39,15.41c-2.32,0-4.46.11-6.45.24A48.5,48.5,0,0,0,126.61,8c-2.6-4.67-5.94-8-10.19-8-6.06,0-11,5.69-14.7,16.92-.24.74-.48,1.51-.71,2.31a2.68,2.68,0,0,0,.45,2.38,10.35,10.35,0,0,1,2,6.3,10.21,10.21,0,0,1-3.1,7.51,9.55,9.55,0,0,1-1.75,1.34,2.6,2.6,0,0,0-1.19,1.61c0,.37-.07.74-.08,1.11A3.92,3.92,0,0,0,101,43.64h.28A3.88,3.88,0,0,0,105.13,40a95.48,95.48,0,0,1,4-20.65c3-9.16,5.5-11.58,7.31-11.58,3.2,0,5.61,8.85,5.61,8.85-4.38.94-7.51,2.5-9.51,5.08-2.17,2.79-2.7,6.41-1.58,10.76,2.24,8.69,7.93,14,12.5,16.16a12.24,12.24,0,0,0,5,1.23,7.4,7.4,0,0,0,3.21-.7c3-1.44,3.32-5.08,3-10.48a78.59,78.59,0,0,0-1-8c-.34-2-.75-4.05-1.21-6.06l-.3-1.27c1.54-.07,3.05-.11,4.45-.12a3.88,3.88,0,0,0,3.83-3.95v-.05h0v-.13A4,4,0,0,0,136.39,15.41Zm-7.91,8.87c-1.26.17-3.88.73-3.41,3A88.18,88.18,0,0,1,127,41a.39.39,0,0,1-.37.42.37.37,0,0,1-.21,0c-2.53-1.34-6.32-4.7-7.92-10.87-.73-2.85,0-3.75.19-4,.66-.86,2.73-2.25,9.74-3a.37.37,0,0,1,.41.33h0a.36.36,0,0,1-.32.41h0Z"/><path class="cls-1" d="M59.06,19.43a.54.54,0,0,0-.46-.6H54.44a.4.4,0,0,0-.4.4h0a.49.49,0,0,0,0,.17,2.92,2.92,0,0,0,.29.48.35.35,0,0,1,0,.41.33.33,0,0,1-.45,0h0c-1.25-1.43-3.28-1.81-5.16-1.81a9.45,9.45,0,0,0-.27,18.9h.27a8.86,8.86,0,0,0,5.83-2.44.33.33,0,0,1,.4,0,.32.32,0,0,1,.1.44h0a3.32,3.32,0,0,0-.6.92.43.43,0,0,0,.25.53l.13,0h4a.4.4,0,0,0,.4-.4h0V36.4A56.17,56.17,0,0,1,59.06,19.43Zm-10.34,13a4.49,4.49,0,1,1,4.41-4.57h0v.07A4.32,4.32,0,0,1,49,32.42h-.24Z"/><path class="cls-1" d="M102,27.89a9.37,9.37,0,0,0-2.22-6.2,9.65,9.65,0,0,0-7.39-3.25,9.45,9.45,0,0,0,0,18.9,9.9,9.9,0,0,0,4.72-1.13A9.14,9.14,0,0,0,102,27.89ZM92.4,32.38a4.41,4.41,0,1,1,4.38-4.44V28a4.42,4.42,0,0,1-4.41,4.41Z"/><path class="cls-1" d="M80.69,12.46H76.23a.41.41,0,0,0-.4.34c-.31,2.13-.46,4.32-.51,5.39a1.78,1.78,0,0,0,.38,1.18v.06a.35.35,0,0,1,0,.43.34.34,0,0,1-.47.08h0a7.1,7.1,0,0,0-4.79-1.43,9.45,9.45,0,0,0-.27,18.9h.27A9,9,0,0,0,76.28,35a.33.33,0,0,1,.4,0,.31.31,0,0,1,.1.43h0a3.53,3.53,0,0,0-.59.92.39.39,0,0,0,.21.51h4.16a.4.4,0,0,0,.4-.4h0A104.93,104.93,0,0,1,81.11,13a.4.4,0,0,0-.34-.45h0ZM70.45,32.37a4.49,4.49,0,1,1,4.42-4.56h0v.06a4.33,4.33,0,0,1-4.18,4.49h-.24Z"/><path class="cls-1" d="M13.43,13.86a.54.54,0,0,0-.5-.33H8.5a.56.56,0,0,0-.5.33A168.57,168.57,0,0,0,0,36.33a.42.42,0,0,0,.29.51H5a.51.51,0,0,0,.52-.4c.14-.56.43-1.7.87-3.27a.46.46,0,0,1,.43-.33h7.91a.44.44,0,0,1,.41.32c.44,1.57.73,2.72.87,3.28a.53.53,0,0,0,.52.4H21a.41.41,0,0,0,.41-.41h0v-.1A168.44,168.44,0,0,0,13.43,13.86ZM8.09,27.33c.64-2,1.39-4.35,2.25-6.68a.42.42,0,0,1,.28-.27.38.38,0,0,1,.46.24c.86,2.34,1.61,4.68,2.25,6.69a.44.44,0,0,1-.3.56H8.5a.45.45,0,0,1-.43-.43v-.13Z"/><path class="cls-1" d="M38.08,18.83H33.76a.57.57,0,0,0-.51.38,98.67,98.67,0,0,1-3.7,10.52.4.4,0,0,1-.48.29L29,30a.4.4,0,0,1-.22-.22,100.34,100.34,0,0,1-3.68-10.54.55.55,0,0,0-.5-.38h-4.5a.39.39,0,0,0-.4.38v0h0v.11c.59,2.22,3.16,11.24,7.09,17.27a.54.54,0,0,0,.45.24h3.83a.54.54,0,0,0,.45-.24c3.84-5.9,6.38-14.63,7.06-17.11a.53.53,0,0,0-.39-.65h0Z"/><text class="cls-2" transform="translate(59.82 48.91)">LIFE</text></g></g></svg>