<svg xmlns="http://www.w3.org/2000/svg" viewBox="0 0 171.67 66.6"><defs><style>.cls-1{fill:#3de580;}.cls-2,.cls-3{fill:#453878;}.cls-3{isolation:isolate;font-size:15.67px;font-family:Fieldwork-Geo-Regular, Fieldwork;letter-spacing:0.2em;}</style></defs><g id="Layer_2" data-name="Layer 2"><g id="Layer_1-2" data-name="Layer 1"><g id="Logos"><path class="cls-1" d="M166.75,18.85c-2.83,0-5.46.13-7.89.29a58.4,58.4,0,0,0-4.07-9.4C151.61,4,147.53,0,142.34,0c-7.41,0-13.46,7-18,20.69-.29.9-.58,1.84-.87,2.83a3.3,3.3,0,0,0,.55,2.91,12.77,12.77,0,0,1,2.49,7.7A12.33,12.33,0,0,1,120.57,45a3.12,3.12,0,0,0-1.45,2,10.37,10.37,0,0,0-.1,1.36,4.77,4.77,0,0,0,4.42,5.08h.33A4.76,4.76,0,0,0,128.51,49a116.09,116.09,0,0,1,4.86-25.25c3.69-11.19,6.72-14.15,8.94-14.15,3.92,0,6.86,10.81,6.86,10.81-5.36,1.15-9.18,3.06-11.63,6.22-2.65,3.41-3.3,7.83-1.93,13.15,2.74,10.63,9.69,17.17,15.29,19.76a14.83,14.83,0,0,0,6.17,1.5,8.92,8.92,0,0,0,3.93-.85c3.6-1.76,4.05-6.21,3.61-12.81-.2-2.94-.62-6.34-1.21-9.85-.42-2.44-.93-5-1.48-7.41-.12-.51-.25-1-.37-1.55,1.88-.08,3.72-.13,5.44-.15a4.74,4.74,0,0,0,4.68-4.8v-.18A4.84,4.84,0,0,0,166.75,18.85Zm-9.67,10.84c-1.54.2-4.74.89-4.18,3.72a107.7,107.7,0,0,1,2.32,16.78.49.49,0,0,1-.44.51.57.57,0,0,1-.26,0c-3.09-1.63-7.73-5.74-9.68-13.29-.9-3.49-.05-4.58.23-4.94.81-1,3.33-2.75,11.91-3.61a.44.44,0,0,1,.49.4h0v.06a.49.49,0,0,1-.42.44Z"/><path class="cls-2" d="M72.2,23.76a.66.66,0,0,0-.56-.73H66.56a.49.49,0,0,0-.49.49.34.34,0,0,0,0,.2,2.39,2.39,0,0,0,.36.59.45.45,0,0,1,0,.5.39.39,0,0,1-.55,0h0c-1.53-1.75-4-2.21-6.31-2.21A11.34,11.34,0,0,0,47.85,34.19c0,6.89,5.26,11.55,11.75,11.55a10.85,10.85,0,0,0,7.12-3,.41.41,0,0,1,.5-.05.4.4,0,0,1,.11.54h0a3.75,3.75,0,0,0-.72,1.13.48.48,0,0,0,.26.63h5a.49.49,0,0,0,.5-.48h0C71.68,38.19,70.85,34.53,72.2,23.76ZM59.56,39.59A5.49,5.49,0,1,1,65,34v.09a5.32,5.32,0,0,1-5.13,5.49Z"/><path class="cls-2" d="M124.67,34.1A11.47,11.47,0,0,0,122,26.52a11.82,11.82,0,0,0-9-4c-6.48,0-11.75,4.69-11.75,11.55S106.47,45.62,113,45.62a12.36,12.36,0,0,0,5.77-1.38A11.18,11.18,0,0,0,124.67,34.1Zm-11.75,5.49a5.49,5.49,0,1,1,5.4-5.58v.09a5.31,5.31,0,0,1-5.11,5.49Z"/><path class="cls-2" d="M98.65,15.24H93.2a.5.5,0,0,0-.49.42c-.38,2.59-.56,5.27-.62,6.58a2.12,2.12,0,0,0,.46,1.45v.07a.47.47,0,0,1,0,.53.42.42,0,0,1-.58.09h0a8.74,8.74,0,0,0-5.86-1.74c-6.48,0-11.75,4.69-11.75,11.55S79.61,45.73,86.1,45.73a10.92,10.92,0,0,0,7.13-3,.42.42,0,0,1,.5,0,.4.4,0,0,1,.1.54h0a3.9,3.9,0,0,0-.72,1.12.49.49,0,0,0,.27.64h5.06a.49.49,0,0,0,.49-.49h0a127.2,127.2,0,0,1,.2-28.73.48.48,0,0,0-.4-.55h0ZM86.13,39.59A5.49,5.49,0,1,1,91.53,34v.09a5.32,5.32,0,0,1-5.13,5.49Z"/><path class="cls-2" d="M16.42,16.94a.69.69,0,0,0-.62-.4H10.39a.68.68,0,0,0-.62.4A207.19,207.19,0,0,0,0,44.42.51.51,0,0,0,.38,45H6.05a.64.64,0,0,0,.63-.49c.17-.69.53-2.09,1.06-4a.55.55,0,0,1,.52-.39h9.68a.51.51,0,0,1,.5.38c.54,1.93.9,3.32,1.07,4a.64.64,0,0,0,.63.49h5.53a.51.51,0,0,0,.51-.51h0a.29.29,0,0,0,0-.13A205.42,205.42,0,0,0,16.42,16.94ZM9.85,33.42c.77-2.45,1.69-5.31,2.74-8.17a.47.47,0,0,1,.6-.3.49.49,0,0,1,.31.3c1,2.86,2,5.73,2.74,8.18a.56.56,0,0,1-.34.69H10.39a.52.52,0,0,1-.52-.52.43.43,0,0,1,0-.16Z"/><path class="cls-2" d="M46.55,23H41.27a.65.65,0,0,0-.62.46,124.19,124.19,0,0,1-4.52,12.87.5.5,0,0,1-.64.28h0a.48.48,0,0,1-.27-.27A119.46,119.46,0,0,1,30.7,23.5a.63.63,0,0,0-.62-.46h-5.5a.49.49,0,0,0-.49.49.29.29,0,0,0,0,.13c.72,2.71,3.86,13.74,8.67,21.11a.65.65,0,0,0,.54.29H38a.68.68,0,0,0,.55-.29c4.69-7.22,7.8-17.89,8.63-20.92a.66.66,0,0,0-.47-.79h0Z"/><text class="cls-3" transform="translate(73.13 60.78)">LIFE</text></g></g></g></svg>