<svg xmlns="http://www.w3.org/2000/svg" xmlns:xlink="http://www.w3.org/1999/xlink" width="211.345" height="231.287" viewBox="0 0 211.345 231.287">
  <defs>
    <linearGradient id="linear-gradient" x1="0.87" y1="0.873" x2="0.129" y2="0.196" gradientUnits="objectBoundingBox">
      <stop offset="0.001" stop-color="#453878"/>
      <stop offset="0.969" stop-color="#9987ff"/>
    </linearGradient>
  </defs>
  <path id="Path_172" data-name="Path 172" d="M1416.737,4903.487c-52.293-15.649-104,20.229-113.635,72.763-2.276,4.416-38.283,36.145-34.225,42.041.921,6.4,14.827,7.239,19.229,9.283-11.641,42.812-24.567,52.733,29.756,56.253-.365,4.448-11.093,29.374-6.988,33.248-4.566,4.445,93.853,13.027,94.541,13.948a7.383,7.383,0,0,0,7.974-5.262l12.768-43.707c2.885-9.873,10.049-16.372,15.558-20.1C1503,5022.756,1487.517,4921.923,1416.737,4903.487Zm12.839,89.435c-8.2,2.882-59.7,44.6-68.761,37.583-6.217-1.216-17.722-24.475-21.447-28.876-9.166-13.947,12.868-28.068,21.7-13.915l8.415,13.115,46.144-29.619C1429.616,4962,1443.721,4984.084,1429.576,4992.922Z" transform="translate(-1268.558 -4899.789)" fill="url(#linear-gradient)"/>
</svg>
