<svg xmlns="http://www.w3.org/2000/svg" xmlns:xlink="http://www.w3.org/1999/xlink" width="90.842" height="90.841" viewBox="0 0 90.842 90.841"><defs><linearGradient id="a" y1="0.5" x2="1" y2="0.5" gradientUnits="objectBoundingBox"><stop offset="0.001" stop-color="#453878"/><stop offset="0.969" stop-color="#6154c7"/></linearGradient><linearGradient id="b" x1="0.5" y1="1" x2="0.5" y2="0" xlink:href="#a"/></defs><g transform="translate(-1685.758 -3629.029)"><path d="M1731.179,3719.87a45.421,45.421,0,1,1,45.421-45.42A45.472,45.472,0,0,1,1731.179,3719.87Zm0-85.841a40.421,40.421,0,1,0,40.421,40.421A40.466,40.466,0,0,0,1731.179,3634.029Z" fill="url(#a)"/><path d="M1746.315,3670.435h-9.77v28.524c0,1.722-1.77,3.108-3.956,3.108h-2.831c-2.174,0-3.945-1.386-3.945-3.108v-28.524h-9.77c-1.443,0-2.35-1.231-1.629-2.22l15.136-20.641a2.158,2.158,0,0,1,3.257,0l15.137,20.641C1748.665,3669.2,1747.758,3670.435,1746.315,3670.435Z" fill="url(#b)"/></g></svg>