<svg xmlns="http://www.w3.org/2000/svg" width="597.947" height="362.553" viewBox="0 0 597.947 362.553">
  <g id="Henry" transform="translate(-1012.016 -2409.153)">
    <path id="Path_548" data-name="Path 548" d="M1498.43,2592.62l-8.315,31.231-5.375,20.22H1184.9l-1.833-20.439-3.057-34.018s-11.906-43.356,45.119-55.1c25.313-5.208,71.082-13.693,115.413-13.693,60.413,0,118.263,13.648,118.263,13.648s58.682,12.983,39.622,58.147Z" fill="#00cdc2"/>
    <path id="Path_549" data-name="Path 549" d="M1490.115,2623.851l-5.375,20.22H1184.9l-1.833-20.412c35.8-7.228,165.487-29.083,307.045.192Z" fill="#1fac9e"/>
    <path id="Path_550" data-name="Path 550" d="M1174.094,2753.273H1168.7l22.469-61.792h11.16l-28.238,61.792Z" fill="#381623"/>
    <path id="Path_551" data-name="Path 551" d="M1477.005,2753.273h5.385l-12.172-61.792h-11.16l17.946,61.792Z" fill="#381623"/>
    <path id="Path_552" data-name="Path 552" d="M1482.535,2693.611h-304.45l1.247-14.916h304.456l-1.252,14.916Z" fill="#512433"/>
    <path id="Path_553" data-name="Path 553" d="M1154.848,2753.273h-8.081l34.78-61.792h13.86l-40.559,61.792Z" fill="#512433"/>
    <path id="Path_554" data-name="Path 554" d="M1495.863,2753.273h8.086l-24.493-61.792H1465.6l30.262,61.792Z" fill="#512433"/>
    <path id="Path_555" data-name="Path 555" d="M1179.7,2681.1s-16.322-46.765-35-86.024c0,0-8.113-14.1,3.282-17.846,12.72-4.187,39.792-3.323,41.145,20.54s7.127,62.482,7.127,62.482a34.112,34.112,0,0,1-16.55,20.848Z" fill="#548a93"/>
    <path id="Path_556" data-name="Path 556" d="M1483.589,2681.1s24.094-46.765,49.291-86.024c0,0,10.456-14.1-.309-17.846-12.029-4.187-39.244-3.323-44.56,20.54s-17.505,62.482-17.505,62.482.783,13.727,13.083,20.848Z" fill="#1fac9e"/>
    <path id="Path_557" data-name="Path 557" d="M1172.39,2681.1s-16.322-46.765-35-86.024c0,0-8.112-14.1,3.282-17.846,12.72-4.187,39.792-3.323,41.145,20.54s7.127,62.482,7.127,62.482a34.112,34.112,0,0,1-16.55,20.848Z" fill="#00cdc2"/>
    <path id="Path_558" data-name="Path 558" d="M1490.9,2681.1s24.094-46.765,49.29-86.024c0,0,10.457-14.1-.314-17.846-12.023-4.187-39.238-3.323-44.554,20.54s-17.51,62.482-17.51,62.482.788,13.727,13.088,20.848Z" fill="#00cdc2"/>
    <path id="Path_559" data-name="Path 559" d="M1490.871,2681.267a4.232,4.232,0,0,1-4.165,3.821h-311a3.464,3.464,0,0,1-3.526-3.821l1.886-22.7a4.251,4.251,0,0,1,4.171-3.841h310.992a3.484,3.484,0,0,1,3.531,3.841l-1.891,22.7Z" fill="#00cdc2"/>
    <path id="Path_560" data-name="Path 560" d="M1276.265,2577.12c-.346,24.341-10.707,48.623-11.432,53.873s-5.811,2.725-5.811,2.725c-29.565,1.251-60.552-8.2-60.552-8.2-5.46.739-.756-5.534-.756-5.534,4.107-34.217,12.156-53.478,12.412-54.07l.005-.016c-2.173-7.148,4.613-3.149,4.613-3.149,37.118.628,59.779,8.457,59.779,8.457,6.541-.327,1.742,5.912,1.742,5.912Z" fill="#fbd872"/>
    <path id="Path_561" data-name="Path 561" d="M1264.833,2630.993c-.719,5.254-5.811,2.725-5.811,2.725-29.565,1.251-60.552-8.2-60.552-8.2-5.46.739-.756-5.534-.756-5.534,4.107-34.217,12.156-53.478,12.412-54.07-.224.862-9.37,36.256-5.407,49.562,0,0,36.17,7.825,56.386-.769,0,0,9.8-5.766,15.16-37.589-.346,24.341-10.707,48.623-11.432,53.873Z" fill="#fc3"/>
    <path id="Path_562" data-name="Path 562" d="M1477.687,2626.882c-.048,5.247-5.476,3.415-5.476,3.415-29.479,5-61.75-.308-61.75-.308-5.38,1.42-1.47-5.339-1.47-5.339-.282-33.678,5.172-53.531,5.471-54.608l.016-.047c-3.095-6.735,4.224-3.676,4.224-3.676,37.288-4.125,61.009.662,61.009.662,6.515-1.154,2.509,5.581,2.509,5.581.006.066.016.128.022.193,2.716,23.871-4.5,48.9-4.555,54.127Z" fill="#fbd872"/>
    <path id="Path_563" data-name="Path 563" d="M1477.687,2626.85c-.048,5.246-5.476,3.43-5.476,3.43-29.479,5-61.75-.3-61.75-.3-5.38,1.42-1.47-5.334-1.47-5.334-.282-33.679,5.172-53.53,5.471-54.608l.016,0s-3.782,31.6,4.336,47.381c0,0,25.383,4.863,52.822,1.207,0,0,7.068-10.252,10.568-45.942h.038c2.716,23.971-4.5,48.929-4.555,54.16Z" fill="#fc3"/>
    <path id="Path_564" data-name="Path 564" d="M1377.232,2626.882c-.054,5.247-5.482,3.415-5.482,3.415-29.474,5-61.75-.308-61.75-.308-5.38,1.42-1.47-5.339-1.47-5.339-.282-33.678,5.178-53.531,5.476-54.608l.016-.047c-3.095-6.735,4.219-3.676,4.219-3.676,37.294-4.125,61.015.662,61.015.662,6.51-1.154,2.5,5.581,2.5,5.581.01.066.016.128.026.193,2.717,23.871-4.506,48.9-4.554,54.127Z" fill="#f2b66d"/>
    <path id="Path_565" data-name="Path 565" d="M1377.232,2626.85c-.054,5.246-5.482,3.43-5.482,3.43-29.474,5-61.75-.3-61.75-.3-5.38,1.42-1.47-5.334-1.47-5.334-.282-33.679,5.178-53.53,5.476-54.608l.011,0s-3.777,31.6,4.341,47.381c0,0,25.383,4.863,52.817,1.207,0,0,7.069-10.252,10.569-45.942h.042c2.717,23.971-4.506,48.929-4.554,54.16Z" fill="#e0a361"/>
    <path id="Path_566" data-name="Path 566" d="M1482.06,2653.176c-.175,2.126-1.7,4.212-3.851,4.212H1189.835a3.963,3.963,0,0,1-3.761-4.212l1.572-18.813a4.264,4.264,0,0,1,4.4-3.61h288.374a3.059,3.059,0,0,1,3.212,3.61l-1.567,18.813Z" fill="#00cdc2"/>
    <path id="Path_567" data-name="Path 567" d="M1481.9,2655.507c0-.256.006-.513.006-.77H1187.438c-.005.065-.005.128-.01.193l-.048.577Z" fill="#1fac9e"/>
    <path id="Path_568" data-name="Path 568" d="M1130.547,2692.457a.914.914,0,0,0,.894-.757c6.835-39.461,17.153-64.118,24.6-77.854,8.065-14.87,14.6-20.489,14.66-20.544a.889.889,0,0,0,.128-1.246.876.876,0,0,0-1.241-.09c-.272.23-6.792,5.814-15.012,20.924-7.543,13.867-17.978,38.751-24.876,78.559a.852.852,0,0,0,.719,1l.128.009Z" fill="#007373"/>
    <path id="Path_569" data-name="Path 569" d="M1112.93,2690.915h.038a.911.911,0,0,0,.868-.919c-.32-26.722-3.393-49.73-9.141-68.386-4.613-14.975-10.947-27.2-18.831-36.351-13.52-15.683-26.746-16.848-27.3-16.89a.916.916,0,0,0-.975.814.857.857,0,0,0,.788.947c.128.01,13.184,1.2,26.251,16.444,12.125,14.141,26.726,43.574,27.445,103.5a.85.85,0,0,0,.857.847Z" fill="#007373"/>
    <path id="Path_570" data-name="Path 570" d="M1117.97,2691.481h.01c.528-1.066.9-.69.911-1.178,1.4-82.362,6.27-130.179,10.1-155.671,4.161-27.683,8.049-36.018,8.087-36.1a.884.884,0,1,0-1.582-.788c-.16.331-4,8.406-8.2,36.2-3.862,25.553-8.768,73.657-10.179,156.384-.011.484.362,1.151.847,1.151Z" fill="#007373"/>
    <path id="Path_571" data-name="Path 571" d="M1053.562,2559.679c-5.4-4.934-14.548-6.429-14.548-6.429,21.968-2.989,19.944,11.363,14.548,6.429Zm4.075-17.94s9.807,3.819,5.689,6.469-5.828-3.778-5.689-6.469Zm17.344,27.056c1.566-7.629,31.605,2.994,31.605,2.994-21.143-2.99-33.176,4.634-31.605-2.994Zm-58.191,47.92c-1.636,1.541-3.143,2.578-2.866,5.737s7.777,21.4,7.777,21.4c3.974-3.631,9.477-9.549,11.656-12.068,3.473-4.023,2.967-7.4,2.562-9.91-.661-4.148-3.441-14.015.533-14.912s2,5.045,3.616,7.4a13.527,13.527,0,0,1,1.583,9.375c4.517-3.859,12.571-7.519,15.267-9.824s4.437-5.655,4.123-8.578c-.586-5.437-9.839-11.119-8.246-14.407s6.866,5.531,11.9,7.176c4.357,1.423,5.231,6.885,2.733,12.692,6.722-2.982,16.955-9.052,18.553-13.068,1.849-4.633-.09-9.2-3.638-10.09-4.746-1.2-14.654-.9-12.8-7.475s11.618,2.093,17.883,2.542c5.3.379,4.533,6.966,3.558,11.249a266.141,266.141,0,0,0,20.786-22.985c5-6.08,5.865-11.8,4.272-16.541-9.737-2.267-22.7,6.581-26.086-1.59-3.063-7.379,17.292-2.771,25.042-.78-4.309-7.9-15.64-12.285-24.141-9.569-8.875,2.836-14.367,15.7-17.2,20.631s-9.7,1.794-9.7,1.794c-4.171-2.915,1.06-5.382,5.1-13.007s8.348-9.418-6.6-11.737c-12.129-1.879-25.921,12.465-35.4,23.1,3.127-.268,5.892.566,8.992-.149,5.184-1.2,12.806,4.634,8.625,9.418s-9.85-6.59-17.02-5.83a11,11,0,0,0-6.446,3.139c-2.684,3.238-4.932,8.793-6.4,15.346,1.651-1.362,3.835-2.421,6.216-1.592,4.294,1.495,16.189-1.494,14.133,2.393s-11.352-.3-17.014,2.989c-1.886,1.1-2.8,1.4-4.411,4.859-1.795,3.85-1.875,16.2-1.582,22.023,1.273-2.888,3.393-4.385,5.625-5.764,3.084-1.906,2.983-6.055,5.4-4.373s-2.338,7.176-6.376,10.989Z" fill="#1fab7a"/>
    <path id="Path_572" data-name="Path 572" d="M1023.8,2633.95c.123,0,.214-.152.224-.272,1.731-22.027,12.38-38.936,21.01-49.216a97.3,97.3,0,0,1,18.489-17.22.235.235,0,0,0,.07-.318.222.222,0,0,0-.309-.065,97.442,97.442,0,0,0-18.6,17.293,96.3,96.3,0,0,0-13.488,20.927,82.321,82.321,0,0,0-7.622,28.578c-.006.123.09.293.213.293Z" fill="#007373"/>
    <path id="Path_573" data-name="Path 573" d="M1048.831,2608.753l.075-.013a.231.231,0,0,0,.144-.286c-.043-.133-4.363-13.36-8.688-18.31a.215.215,0,0,0-.2-.071,57.2,57.2,0,0,0-19.512,8.18.229.229,0,0,0-.07.312.223.223,0,0,0,.309.058,56.951,56.951,0,0,1,19.214-8.085c4.241,4.957,8.481,17.934,8.523,18.066a.211.211,0,0,0,.208.149Z" fill="#007373"/>
    <path id="Path_574" data-name="Path 574" d="M1074.006,2595.3a.22.22,0,0,0,.16-.065.224.224,0,0,0,.011-.317c-.144-.147-14.345-14.709-24.03-16.631-.085-.025-10.27-2.926-24.712-.925a.239.239,0,0,0-.2.254.22.22,0,0,0,.25.191c14.346-1.988,24.446.886,24.542.915,9.572,1.9,23.683,16.367,23.827,16.513a.21.21,0,0,0,.154.065Z" fill="#007373"/>
    <path id="Path_575" data-name="Path 575" d="M1091.841,2576.237a.228.228,0,0,0,.224-.191.214.214,0,0,0-.176-.255c-.181-.028-17.957-2.754-34.971-3.783-.512-1.224-4.7-10.634-14.506-13.368a.232.232,0,0,0-.282.157.218.218,0,0,0,.149.276c10.223,2.851,14.229,13.132,14.271,13.236a.208.208,0,0,0,.186.138c17.041,1.022,34.892,3.76,35.068,3.787l.037,0Z" fill="#007373"/>
    <path id="Path_576" data-name="Path 576" d="M1074.241,2564.687l.069-.01a79.539,79.539,0,0,1,31.621-3.468.236.236,0,0,0,.261-.192.219.219,0,0,0-.187-.253,80.055,80.055,0,0,0-31.823,3.486.229.229,0,0,0-.149.283.214.214,0,0,0,.208.154Z" fill="#007373"/>
    <path id="Path_577" data-name="Path 577" d="M1060.055,2559.081l.027,0a.234.234,0,0,0,.2-.251c-.687-7.064-7.99-13.972-8.065-14.041a.229.229,0,0,0-.314.332c.074.068,7.261,6.867,7.932,13.766a.217.217,0,0,0,.218.2Z" fill="#007373"/>
    <path id="Path_578" data-name="Path 578" d="M1194.2,2576.172s-8.044,1.3-12.993,5.6-5.982-8.2,12.993-5.6Zm-20.909-4.39c-3.446-2.307,5.29-5.632,5.29-5.632-.021,2.343-1.843,7.939-5.29,5.632Zm-38.876,20.53s26.7-9.249,27.674-2.607-9.11,0-27.674,2.607Zm70.881,29.546c2.189-1.464,1.885,2.147,4.474,3.807,1.87,1.2,3.638,2.5,4.6,5.019.559-5.071,1.124-15.822-.245-19.174-1.225-3.01-2-3.275-3.59-4.23-4.757-2.863-13.062.781-14.655-2.6s8.614-.781,12.428-2.082a5.348,5.348,0,0,1,5.332,1.385c-.942-5.705-2.615-10.542-4.783-13.36a8.931,8.931,0,0,0-5.45-2.733c-6.2-.662-11.729,9.24-15.118,5.076s3.543-9.242,8-8.2c2.658.622,5.109-.1,7.82.13-7.708-9.258-18.969-21.746-29.628-20.11-13.142,2.018-9.477,3.58-6.355,10.218s7.548,8.786,3.766,11.324c0,0-6.131,2.733-8.347-1.562s-6.34-15.493-13.92-17.962c-7.26-2.364-17.349,1.456-21.51,8.331,6.851-1.733,24.808-5.745,21.766.679-3.372,7.115-14.2-.589-22.794,1.384-1.635,4.13-1.177,9.108,2.866,14.4a211.382,211.382,0,0,0,16.913,20.011c-.629-3.728-.959-9.463,3.676-9.794,5.481-.39,14.425-7.939,15.7-2.212s-7.33,5.466-11.527,6.507c-3.133.778-5.056,4.751-3.687,8.786,1.188,3.5,9.781,8.78,15.48,11.376-1.875-5.056-.836-9.81,3.037-11.05,4.464-1.432,9.508-9.111,10.723-6.248s-7.128,7.81-7.916,12.544c-.426,2.544.916,5.462,3.143,7.468s9.056,5.193,12.785,8.553a12.234,12.234,0,0,1,1.864-8.163c1.524-2.049.117-7.223,3.532-6.442s.479,9.371-.309,12.983c-.474,2.184-1.092,5.125,1.726,8.627a141.763,141.763,0,0,0,9.519,10.507s7.468-15.879,7.879-18.629-.858-3.653-2.2-4.995c-3.318-3.319-7.18-8.1-4.985-9.567Z" fill="#1fab7a"/>
    <path id="Path_579" data-name="Path 579" d="M1203.291,2646.2c-.1,0-.181-.018-.181-.123-.373-19.177-8.773-33.84-15.757-42.791a76.873,76.873,0,0,0-15.208-14.962.182.182,0,0,1-.048-.264.2.2,0,0,1,.271-.049,81.006,81.006,0,0,1,25.969,33.28,68.346,68.346,0,0,1,5.162,24.766c.005.108-.091.143-.2.143Z" fill="#007373"/>
    <path id="Path_580" data-name="Path 580" d="M1182.8,2624.493l-.064-.01a.191.191,0,0,1-.112-.25c.048-.116,4.485-11.631,8.507-15.942a.2.2,0,0,1,.181-.061,46.925,46.925,0,0,1,16.567,7.122.2.2,0,0,1-.229.321,46.7,46.7,0,0,0-16.312-7.038c-3.947,4.315-8.3,15.614-8.347,15.729a.208.208,0,0,1-.191.129Z" fill="#007373"/>
    <path id="Path_581" data-name="Path 581" d="M1161.571,2612.779a.185.185,0,0,1-.133-.057.193.193,0,0,1,.005-.276c.133-.128,13.248-12.806,21.782-14.479a57.53,57.53,0,0,1,21.563-.8.189.189,0,0,1,.16.22.209.209,0,0,1-.229.167,57.114,57.114,0,0,0-21.414.8c-8.433,1.655-21.463,14.248-21.6,14.376a.188.188,0,0,1-.138.057Z" fill="#007373"/>
    <path id="Path_582" data-name="Path 582" d="M1147.028,2596.184a.184.184,0,0,1-.186-.166.205.205,0,0,1,.17-.223c.155-.023,15.773-2.4,30.641-3.292.506-1.066,4.639-9.258,13.317-11.638a.188.188,0,0,1,.234.136.2.2,0,0,1-.143.24c-9.046,2.482-13.062,11.433-13.1,11.524a.194.194,0,0,1-.17.12c-14.889.89-30.572,3.273-30.726,3.3l-.032,0Z" fill="#007373"/>
    <path id="Path_583" data-name="Path 583" d="M1162.945,2586.129l-.059-.009a68.271,68.271,0,0,0-27.353-3.019.188.188,0,0,1-.214-.168.2.2,0,0,1,.171-.219,68.711,68.711,0,0,1,27.53,3.034.189.189,0,0,1,.117.246.2.2,0,0,1-.192.135Z" fill="#007373"/>
    <path id="Path_584" data-name="Path 584" d="M1175.586,2581.248l-.027,0a.187.187,0,0,1-.16-.218c.965-6.15,7.676-12.165,7.746-12.224a.189.189,0,0,1,.271.013.192.192,0,0,1-.016.275c-.069.06-6.674,5.978-7.617,11.986a.2.2,0,0,1-.2.17Z" fill="#007373"/>
    <path id="Path_585" data-name="Path 585" d="M1121.539,2490.956c4.5.37,1.475,2.9-3.665,5.392s-10.122,10.117-10.122,10.117c3.287-11.2,9.285-15.879,13.787-15.509Zm40.9-11.412c-7.33-1.639-9.434,4.026-10.127-1.593s10.127,1.593,10.127,1.593Zm-11.4,7.807c5.375-5.115,16.711,3.437,16.711,3.437-8.806-4.4-22.086,1.677-16.711-3.437Zm-28.19-5.708a20.078,20.078,0,0,0-8.422-1.613c-5.327,5.174-9.194,14.888-7.064,31.748a41.238,41.238,0,0,0,1.508,6.963c1.113-.357,2.322-1.126,3.3-4.311,2.248-7.31,9.9-12.42,11.676-8.063s-3.867,4.135-8.48,10.928a20.276,20.276,0,0,0-3.031,7.96c-.16,4.4,4.2,8.33,7.378,11.8.159-5.284,2.248-4.5,2.866-9.44.74-5.914,8.128-10.669,10.046-8.628s-5.205,10.4-7.708,14.779a7.5,7.5,0,0,0-.687,6.6c.682,1.842,3.995,4.516,6.248,6.122.128-2.357,2.387-4.4,2.978-6.639.73-2.764,1.124-9.978,4.965-8.061s-1.684,6.862-3.292,10.487c-1,2.254-1.636,3.831.01,6.645.98,1.68,6.68,4.246,6.68,4.246s3.724-1.3,5.109-2.977a7.864,7.864,0,0,0,.842-7.954c-1.716-3.072-5.05-7.714-2.366-9.462,3.74-2.44,2.52,1.376,3.436,6.975.373,2.273,2.28,4.092,2.27,7.863,2.2-1.9,5.811-4.707,7.031-7.729s1.14-6.987-.181-8.893c-2.072-2.985-12.444-7.083-9.935-13.2s8.151.606,9.519,4.757c1.1,3.317,3.538,7.055,4.294,11.69,2.035-3.886,6.659-12.56,6.786-15.983s-1.752-5.43-5.071-7.219c-5.4-2.916-10.041-5.884-7.809-9.751s6.568,5.014,9.967,6.062a6.562,6.562,0,0,1,4.762,4.015c5.87-27.859-12.5-39.559-21.968-37.989a9.91,9.91,0,0,0-7.314,13.6c1.593,3.9.586,10.331-1.9,10.46-2.147.112-5.162-3.329-3.558-9.676s1.2-11.139-6.989-12.63a16.5,16.5,0,0,0-12.124,3.059c12.593-2.573,10.153,5.409,6.227,3.447Z" fill="#1fab7a"/>
    <path id="Path_586" data-name="Path 586" d="M1141.589,2551.281l.048.012a.131.131,0,0,0,.139-.118c2.434-24.357-1.763-51.93-1.806-52.205a.122.122,0,0,0-.144-.1.131.131,0,0,0-.106.148c.042.275,4.234,27.817,1.805,52.141a.125.125,0,0,0,.064.124Z" fill="#007373"/>
    <path id="Path_587" data-name="Path 587" d="M1129.689,2535.819v0c.064.03.085.107.117.043a29.071,29.071,0,0,1,12.343-12.61,29.52,29.52,0,0,1,11.751,13.98.125.125,0,0,0,.154.087.117.117,0,0,0,.075-.158,29.805,29.805,0,0,0-11.933-14.114l-.117,0a29.039,29.039,0,0,0-12.5,12.711c-.032.063.048.031.112.06Z" fill="#007373"/>
    <path id="Path_588" data-name="Path 588" d="M1118.321,2525.965l.006,0c.058.031.095.082.122.018a37.846,37.846,0,0,1,13.935-15.634,35.136,35.136,0,0,1,8.39-4c9.1,2.865,14.591,6.52,17.595,9.074a18.857,18.857,0,0,1,4.374,4.9.125.125,0,0,0,.17.053.128.128,0,0,0,.058-.172,19.31,19.31,0,0,0-4.437-4.963c-3.025-2.572-8.56-6.242-17.722-9.121h-.07a35.5,35.5,0,0,0-8.512,4.066,37.909,37.909,0,0,0-14.01,15.7c-.027.063.043.053.1.083Z" fill="#007373"/>
    <path id="Path_589" data-name="Path 589" d="M1116.931,2502.084l.112,0a34.737,34.737,0,0,1,16.316-3.122,23.952,23.952,0,0,1,6.595,1.23l.117-.011c5.434-3.414,11.64-3.343,15.885-2.684a33.407,33.407,0,0,1,8.012,2.279.128.128,0,0,0,.17-.062.123.123,0,0,0-.058-.169,33.414,33.414,0,0,0-8.071-2.3c-4.277-.666-10.52-.738-16.018,2.685a24.785,24.785,0,0,0-6.6-1.224,35.036,35.036,0,0,0-16.445,3.144.134.134,0,0,0-.069.169l.059.062Z" fill="#007373"/>
    <path id="Path_590" data-name="Path 590" d="M1143.033,2492.884a.129.129,0,0,0,.165-.048,29.8,29.8,0,0,1,10.579-10.047.133.133,0,0,0,.064-.171.125.125,0,0,0-.17-.059,30.09,30.09,0,0,0-10.681,10.142.124.124,0,0,0,.032.176l.011.007Z" fill="#007373"/>
    <path id="Path_591" data-name="Path 591" d="M1135.021,2495.236l.139-.016a.128.128,0,0,0,.026-.18,27.076,27.076,0,0,0-16.439-8.7.133.133,0,0,0-.149.108.127.127,0,0,0,.107.145,26.773,26.773,0,0,1,16.274,8.608l.042.034Z" fill="#007373"/>
    <path id="Path_592" data-name="Path 592" d="M1154.816,2655.133l-2.578-.6c.016-.045,1.427-4.785-.73-7.785-1.236-1.723-3.484-2.6-6.68-2.6s-5.609.878-7.159,2.61c-2.685,3.006-2.11,7.742-2.1,7.789l-2.685.567c-.032-.244-.751-6.017,2.823-10.036,2.141-2.405,5.29-3.624,9.354-3.624s6.989,1.218,8.7,3.621c2.877,4.024,1.13,9.809,1.055,10.053Z" fill="#bf8b60"/>
    <path id="Path_593" data-name="Path 593" d="M1144.418,2747.854a4.234,4.234,0,0,1-4.166,3.821h-56.966a3.461,3.461,0,0,1-3.526-3.821l1.7-89.94a4.154,4.154,0,0,1,4.171-3.722h68.51a3.39,3.39,0,0,1,3.532,3.722l-13.259,89.94Z" fill="#d9ab82"/>
    <path id="Path_594" data-name="Path 594" d="M1107.087,2655.133l-2.579-.6c.016-.045,1.434-4.785-.724-7.785-1.236-1.723-3.489-2.6-6.68-2.6s-5.615.878-7.159,2.61c-2.685,3.006-2.115,7.742-2.11,7.789l-2.679.567c-.032-.244-.757-6.017,2.823-10.036,2.136-2.405,5.284-3.624,9.349-3.624s6.989,1.218,8.709,3.621c2.877,4.024,1.13,9.809,1.05,10.053Z" fill="#d9ab82"/>
    <path id="Path_595" data-name="Path 595" d="M1142.053,2660.584h-10.777c-.213,0-.367-.054-.351-.266s.2-.266.415-.266h10.777c.213,0,.372.053.357.266s-.208.266-.421.266Z" fill="#a5714a"/>
    <path id="Path_596" data-name="Path 596" d="M1141.669,2665.379h-10.776c-.213,0-.368-.321-.352-.533s.2-.533.416-.533h10.776c.213,0,.373.32.352.533s-.2.533-.416.533Z" fill="#a5714a"/>
    <path id="Path_597" data-name="Path 597" d="M1141.286,2669.64h-10.777c-.213,0-.367-.054-.351-.266s.2-.267.415-.267h10.777c.213,0,.373.054.356.267s-.207.266-.42.266Z" fill="#a5714a"/>
    <path id="Path_598" data-name="Path 598" d="M1116.3,2660.052h-10.776c-.213,0-.368-.054-.352-.267s.2-.266.415-.266h10.777c.213,0,.373.054.352.266s-.2.267-.416.267Z" fill="#a5714a"/>
    <path id="Path_599" data-name="Path 599" d="M1115.914,2664.846h-10.777c-.213,0-.368-.054-.352-.267s.2-.266.416-.266h10.776c.213,0,.373.054.357.266s-.207.267-.42.267Z" fill="#a5714a"/>
    <path id="Path_600" data-name="Path 600" d="M1115.53,2669.64h-10.777c-.213,0-.367-.32-.351-.533s.2-.532.415-.532h10.777c.213,0,.373.32.357.532s-.208.533-.421.533Z" fill="#a5714a"/>
    <path id="Path_601" data-name="Path 601" d="M1127.883,2673.9H1117.1c-.207,0-.367-.321-.351-.533s.207-.533.415-.533h10.782c.213,0,.368.32.352.533s-.2.533-.416.533Z" fill="#a5714a"/>
    <path id="Path_602" data-name="Path 602" d="M1127.5,2678.163h-10.782c-.208,0-.368-.054-.352-.266s.208-.267.416-.267h10.781c.208,0,.368.054.352.267s-.2.266-.415.266Z" fill="#a5714a"/>
    <path id="Path_603" data-name="Path 603" d="M1127.116,2682.957h-10.782c-.207,0-.367-.053-.351-.266s.207-.266.421-.266h10.776c.208,0,.367.054.352.266s-.208.266-.416.266Z" fill="#a5714a"/>
    <path id="Path_604" data-name="Path 604" d="M1097.993,2700h-10.776c-.213,0-.373-.321-.351-.533s.2-.533.415-.533h10.777c.213,0,.372.32.351.533s-.2.533-.416.533Z" fill="#a5714a"/>
    <path id="Path_605" data-name="Path 605" d="M1097.61,2704.265h-10.776c-.213,0-.373-.054-.352-.266s.2-.267.416-.267h10.776c.213,0,.373.054.352.267s-.2.266-.416.266Z" fill="#a5714a"/>
    <path id="Path_606" data-name="Path 606" d="M1097.227,2709.059H1086.45c-.213,0-.367-.053-.351-.266s.2-.266.415-.266h10.776c.213,0,.373.054.352.266s-.2.266-.415.266Z" fill="#a5714a"/>
    <path id="Path_607" data-name="Path 607" d="M1114.459,2737.825h-10.776c-.213,0-.373-.054-.352-.266s.2-.267.416-.267h10.776c.213,0,.373.054.352.267s-.2.266-.416.266Z" fill="#a5714a"/>
    <path id="Path_608" data-name="Path 608" d="M1114.076,2742.619H1103.3c-.213,0-.373-.054-.351-.266s.2-.267.415-.267h10.776c.214,0,.368.054.352.267s-.2.266-.415.266Z" fill="#a5714a"/>
    <path id="Path_609" data-name="Path 609" d="M1113.692,2747.413h-10.776c-.213,0-.373-.32-.352-.532s.2-.533.416-.533h10.776c.213,0,.367.32.352.533s-.2.532-.416.532Z" fill="#a5714a"/>
    <path id="Path_610" data-name="Path 610" d="M1129.433,2724.508h-10.776c-.213,0-.373-.054-.352-.267s.2-.266.416-.266H1129.5c.213,0,.373.054.352.266s-.2.267-.416.267Z" fill="#a5714a"/>
    <path id="Path_611" data-name="Path 611" d="M1129.05,2729.3h-10.777c-.213,0-.373-.32-.351-.533s.2-.533.415-.533h10.777c.213,0,.372.321.351.533s-.2.533-.415.533Z" fill="#a5714a"/>
    <path id="Path_612" data-name="Path 612" d="M1128.666,2733.563H1117.89c-.213,0-.373-.054-.352-.266s.2-.266.416-.266h10.776c.213,0,.373.053.352.266s-.2.266-.416.266Z" fill="#a5714a"/>
    <path id="Path_613" data-name="Path 613" d="M1141.371,2738.358h-10.777c-.213,0-.372-.054-.356-.267s.207-.266.42-.266h10.777c.213,0,.367.054.351.266s-.2.267-.415.267Z" fill="#a5714a"/>
    <path id="Path_614" data-name="Path 614" d="M1140.987,2743.152h-10.776c-.213,0-.373-.32-.357-.533s.208-.533.421-.533h10.776c.213,0,.368.321.352.533s-.2.533-.416.533Z" fill="#a5714a"/>
    <path id="Path_615" data-name="Path 615" d="M1140.6,2747.413h-10.777c-.213,0-.372-.053-.357-.266s.208-.266.421-.266h10.777c.213,0,.367.053.351.266s-.2.266-.415.266Z" fill="#a5714a"/>
    <path id="Path_616" data-name="Path 616" d="M1152.387,2670.518a.352.352,0,0,1-.357-.385l.9-10.777a.432.432,0,0,1,.421-.385.348.348,0,0,1,.351.385l-.9,10.777a.423.423,0,0,1-.415.385Z" fill="#a5714a"/>
    <path id="Path_617" data-name="Path 617" d="M1147.769,2670.518a.352.352,0,0,1-.357-.385l.9-10.777a.431.431,0,0,1,.42-.385.348.348,0,0,1,.352.385l-.9,10.777a.427.427,0,0,1-.415.385Z" fill="#a5714a"/>
    <path id="Path_618" data-name="Path 618" d="M1143.15,2670.518a.353.353,0,0,1-.357-.385l.9-10.777a.431.431,0,0,1,.415-.385.349.349,0,0,1,.357.385l-.894,10.777a.427.427,0,0,1-.416.385Z" fill="#a5714a"/>
    <path id="Path_619" data-name="Path 619" d="M1128.139,2670.518a.353.353,0,0,1-.357-.385l.9-10.777a.431.431,0,0,1,.421-.385.348.348,0,0,1,.351.385l-.9,10.777a.426.426,0,0,1-.415.385Z" fill="#a5714a"/>
    <path id="Path_620" data-name="Path 620" d="M1123.52,2670.518a.353.353,0,0,1-.357-.385l.9-10.777a.433.433,0,0,1,.421-.385.352.352,0,0,1,.352.385l-.9,10.777a.427.427,0,0,1-.416.385Z" fill="#a5714a"/>
    <path id="Path_621" data-name="Path 621" d="M1118.9,2670.518a.352.352,0,0,1-.357-.385l.895-10.777a.432.432,0,0,1,.421-.385.351.351,0,0,1,.351.385l-.9,10.777a.43.43,0,0,1-.415.385Z" fill="#a5714a"/>
    <path id="Path_622" data-name="Path 622" d="M1139.752,2683.6a.346.346,0,0,1-.352-.386l.9-10.776a.422.422,0,0,1,.415-.385.346.346,0,0,1,.352.385l-.9,10.776a.423.423,0,0,1-.415.386Z" fill="#a5714a"/>
    <path id="Path_623" data-name="Path 623" d="M1135.133,2683.6a.346.346,0,0,1-.352-.386l.9-10.776a.423.423,0,0,1,.416-.385.345.345,0,0,1,.351.385l-.9,10.776a.422.422,0,0,1-.415.386Z" fill="#a5714a"/>
    <path id="Path_624" data-name="Path 624" d="M1130.515,2683.6a.346.346,0,0,1-.352-.386l.9-10.776a.422.422,0,0,1,.415-.385.348.348,0,0,1,.352.385l-.895,10.776a.423.423,0,0,1-.415.386Z" fill="#a5714a"/>
    <path id="Path_625" data-name="Path 625" d="M1140.918,2734.411a.349.349,0,0,1-.352-.385l.9-10.777a.423.423,0,0,1,.416-.385.352.352,0,0,1,.357.385l-.9,10.777a.423.423,0,0,1-.416.385Z" fill="#a5714a"/>
    <path id="Path_626" data-name="Path 626" d="M1136.3,2734.411a.349.349,0,0,1-.352-.385l.9-10.777a.422.422,0,0,1,.415-.385.352.352,0,0,1,.357.385l-.9,10.777a.422.422,0,0,1-.415.385Z" fill="#a5714a"/>
    <path id="Path_627" data-name="Path 627" d="M1131.681,2734.411a.348.348,0,0,1-.351-.385l.9-10.777a.422.422,0,0,1,.415-.385.346.346,0,0,1,.352.385l-.895,10.777a.423.423,0,0,1-.416.385Z" fill="#a5714a"/>
    <path id="Path_628" data-name="Path 628" d="M1125.577,2696.691a.348.348,0,0,1-.352-.385l.9-10.777a.422.422,0,0,1,.415-.385.352.352,0,0,1,.357.385l-.9,10.777a.422.422,0,0,1-.415.385Z" fill="#a5714a"/>
    <path id="Path_629" data-name="Path 629" d="M1120.958,2696.691a.349.349,0,0,1-.352-.385l.9-10.777a.423.423,0,0,1,.416-.385.346.346,0,0,1,.352.385l-.9,10.777a.423.423,0,0,1-.416.385Z" fill="#a5714a"/>
    <path id="Path_630" data-name="Path 630" d="M1116.34,2696.691a.346.346,0,0,1-.352-.385l.9-10.777a.422.422,0,0,1,.415-.385.345.345,0,0,1,.352.385l-.9,10.777a.422.422,0,0,1-.415.385Z" fill="#a5714a"/>
    <path id="Path_631" data-name="Path 631" d="M1126.328,2747.882a.349.349,0,0,1-.352-.385l.9-10.777a.423.423,0,0,1,.415-.385.352.352,0,0,1,.357.385l-.895,10.777a.431.431,0,0,1-.42.385Z" fill="#a5714a"/>
    <path id="Path_632" data-name="Path 632" d="M1121.709,2747.882a.348.348,0,0,1-.351-.385l.9-10.777a.423.423,0,0,1,.415-.385.345.345,0,0,1,.351.385l-.894,10.777a.424.424,0,0,1-.416.385Z" fill="#a5714a"/>
    <path id="Path_633" data-name="Path 633" d="M1117.091,2747.882a.349.349,0,0,1-.352-.385l.9-10.777a.423.423,0,0,1,.415-.385.346.346,0,0,1,.352.385l-.9,10.777a.423.423,0,0,1-.415.385Z" fill="#a5714a"/>
    <path id="Path_634" data-name="Path 634" d="M1513.186,2753.273h-3.468l31.147-124.65h3.463l-31.141,124.65Z" fill="#313340"/>
    <path id="Path_635" data-name="Path 635" d="M1598.246,2753.273h3.463l-10.425-124.65h-3.463l10.425,124.65Z" fill="#313340"/>
    <path id="Path_636" data-name="Path 636" d="M1557.256,2753.273h-3.468l10.361-124.65h3.463l-10.355,124.65Z" fill="#313340"/>
    <path id="Path_637" data-name="Path 637" d="M1591.066,2652.061h-54.271l.192-2.131h54.271l-.192,2.131Z" fill="#313340"/>
    <path id="Path_638" data-name="Path 638" d="M1609.566,2628.534a4.232,4.232,0,0,1-4.166,3.818h-78.907a3.462,3.462,0,0,1-3.527-3.818l.384-4.6a4.243,4.243,0,0,1,4.171-3.832h78.9a3.472,3.472,0,0,1,3.526,3.832l-.383,4.6Z" fill="#bf6e50"/>
    <path id="Path_639" data-name="Path 639" d="M1591.742,2612.642H1542.58l-.479,7.458h49.162l.48-7.458Z" fill="#9987ff"/>
    <path id="Path_640" data-name="Path 640" d="M1595.972,2605.717h-46.8l-.447,6.925h46.8l.448-6.925Z" fill="#ff5d54"/>
    <path id="Path_641" data-name="Path 641" d="M1589.713,2599.857h-43.489l-.357,5.86h43.489l.357-5.86Z" fill="#1fac9e"/>
    <path id="Path_642" data-name="Path 642" d="M1594.049,2592.4h-49.157l-.479,7.458h49.162l.474-7.458Z" fill="#ff5d54"/>
    <path id="Path_643" data-name="Path 643" d="M1598.284,2584.942h-46.8l-.447,7.458h46.8l.453-7.458Z" fill="#9987ff"/>
    <path id="Path_644" data-name="Path 644" d="M1592.024,2579.615h-43.489l-.362,5.327h43.489l.362-5.327Z" fill="#1fac9e"/>
    <path id="Path_645" data-name="Path 645" d="M1240.329,2457.628h-40.373l6.137-48.475h40.373l-6.137,48.475Z" fill="#bfc2cb"/>
    <path id="Path_646" data-name="Path 646" d="M1203.344,2454.965l5.514-43.148h34.215l-5.514,43.148Z" fill="#fff"/>
    <path id="Path_647" data-name="Path 647" d="M1213.508,2445.909l3.649-24.5h15.751l-3.643,24.5Z" fill="#3de580"/>
    <path id="Path_648" data-name="Path 648" d="M1571.164,2496.515H1451.079l.639-7.458H1571.8l-.639,7.458Z" fill="#d9ab82"/>
    <path id="Path_649" data-name="Path 649" d="M1555.823,2463.488h-20.4l-2.141,26.1h20.4l2.141-26.1Z" fill="#bfc2cb"/>
    <path id="Path_650" data-name="Path 650" d="M1551.241,2486.393h-15.395l1.63-19.709h15.4l-1.635,19.709Z" fill="#fff"/>
    <path id="Path_651" data-name="Path 651" d="M1548.194,2481.066h-8.465l.863-10.121h8.464l-.863,10.121Z" fill="#3de580"/>
    <path id="Path_652" data-name="Path 652" d="M1472.243,2478.4h-11.165l-.927,11.187h11.165l.927-11.187Z" fill="#ff8d94"/>
    <path id="Path_653" data-name="Path 653" d="M1523.818,2478.4h-11.16l-.932,11.187h11.165l.927-11.187Z" fill="#ff5fa2"/>
    <path id="Path_654" data-name="Path 654" d="M1480.606,2451.768h-6.158l-3.132,37.821h6.158l3.132-37.821Z" fill="#3de580"/>
    <path id="Path_655" data-name="Path 655" d="M1484.788,2489.59h-7.314l2.813-34.093h7.314l-2.813,34.093Z" fill="#9987ff"/>
    <path id="Path_656" data-name="Path 656" d="M1492.1,2489.59h-7.309l3-36.223h7.314l-3.01,36.223Z" fill="#3de580"/>
    <path id="Path_657" data-name="Path 657" d="M1499.8,2489.59h-7.7l2.818-34.093h7.7l-2.813,34.093Z" fill="#1fac9e"/>
    <path id="Path_658" data-name="Path 658" d="M1511.95,2487.924l-6.541,1.039-2.573-33.061,6.547-1.039,2.568,33.061Z" fill="#9987ff"/>
    <path id="Path_659" data-name="Path 659" d="M1535.644,2446.974H1415.559l.639-7.458h120.085l-.639,7.458Z" fill="#d9ab82"/>
    <path id="Path_660" data-name="Path 660" d="M1465.648,2413.947h-22.325l-2.141,25.569h22.325l2.141-25.569Z" fill="#bfc2cb"/>
    <path id="Path_661" data-name="Path 661" d="M1460.684,2436.853h-16.551l1.63-19.71h16.551l-1.63,19.71Z" fill="#fff"/>
    <path id="Path_662" data-name="Path 662" d="M1456.864,2431.526H1448.4l.863-10.121h8.464l-.863,10.121Z" fill="#3de580"/>
    <path id="Path_663" data-name="Path 663" d="M1497.695,2426.732h-13.088l-1.087,12.785h13.088l1.087-12.785Z" fill="#ff5d54"/>
    <path id="Path_664" data-name="Path 664" d="M1324.879,2477.87s.66,15.64,0,18.187-6.894,6.693-13.275,9.684a30.326,30.326,0,0,0,24.253,10.877c16.04-.331,20.12-6.982,22.667-10.637,0,0-12.242-4.263-12.535-9.469s0-18.642,0-18.642Z" fill="#ea997d"/>
    <path id="Path_665" data-name="Path 665" d="M1335.287,2498.422c5.077,0,8.6-3.371,10.585-6.106.027-4.619.117-14.446.117-14.446h-21.11s.175,9.823.255,14.233c1.7,2.761,4.944,6.319,10.153,6.319Z" fill="#d87e66"/>
    <path id="Path_666" data-name="Path 666" d="M1353.276,2468.771c-1.464,18.26-6.584,27.029-17.387,27.029s-15.986-7.24-17.381-27.029c-1.034-14.612,6.626-23.65,17.381-23.65s18.607,8.48,17.387,23.65Z" fill="#ea997d"/>
    <path id="Path_667" data-name="Path 667" d="M1335.628,2483.408a2.081,2.081,0,0,1-1.976-.95c-1.06-2.1.948-5.485,1.135-5.9.133-.289.325-.459.612-.329s.181.511.053.8c-.617,1.364-1,3.888-.431,4.851a.8.8,0,0,0,.7.388.58.58,0,0,1,.522.62c-.021.549-.6.522-.618.521Z" fill="#d87e66"/>
    <path id="Path_668" data-name="Path 668" d="M1335.666,2488.592a9.1,9.1,0,0,1-5.008-1.484.561.561,0,0,1,.661-.906,8.207,8.207,0,0,0,8.842-.028.56.56,0,1,1,.571.963,9.9,9.9,0,0,1-5.066,1.455Z" fill="#ce6565"/>
    <path id="Path_669" data-name="Path 669" d="M1327.649,2472.867c0,1-.485,1.818-1.087,1.818s-1.081-.814-1.081-1.818.484-1.818,1.081-1.818,1.087.814,1.087,1.818Z" fill="#23242b"/>
    <path id="Path_670" data-name="Path 670" d="M1345.9,2472.867c0,1-.485,1.818-1.087,1.818s-1.087-.814-1.087-1.818.49-1.818,1.087-1.818,1.087.814,1.087,1.818Z" fill="#23242b"/>
    <path id="Path_671" data-name="Path 671" d="M1330.557,2467.368s-.027.512-1.811.351c-1.14-.1-6.222.288-6.494-.322s1-1.3,1.481-1.417a29.421,29.421,0,0,1,5.487.256,2.045,2.045,0,0,1,1.337,1.132Z" fill="#efcbb4"/>
    <path id="Path_672" data-name="Path 672" d="M1340.934,2467.541s.048.51,1.822.277c1.134-.149,6.227.034,6.477-.587s-1.049-1.263-1.539-1.356a29.48,29.48,0,0,0-5.471.481,2.034,2.034,0,0,0-1.289,1.185Z" fill="#efcbb4"/>
    <path id="Path_673" data-name="Path 673" d="M1344.135,2453.957s-7.74-6.222-8.965,4c-.405,3.39-2.647,6.969-14.457,6.312l-.075,7.056-2.317-1.893s-.959-4.681-2.589-6.158-3.462-5.389-.767-7.411c2.451-2.019-3.308-5.512,3.228-10.14,8.758-6.2,24.52-9.481,27.8-.487a6.4,6.4,0,0,1,7.266,1.691c3.463,3.559,6.137,8.739,4.373,13.409-.522,1.389-2,2.821-2.588,4.173a35.686,35.686,0,0,0-1.583,5.384l-2.407.79s-.581-5.5-.916-7.233.058-8.724-6-9.494Z" fill="#efcbb4"/>
    <path id="Path_674" data-name="Path 674" d="M1321.336,2469.443s-.873-2.566-4.309-2.265c-3.324.292-2.195,8.828.729,10.235s3.889-2.836,3.889-2.836l-.309-5.134Z" fill="#ea997d"/>
    <path id="Path_675" data-name="Path 675" d="M1350.443,2469.443s.873-2.566,4.314-2.265c3.319.292,2.2,8.828-.729,10.235s-3.894-2.836-3.894-2.836l.309-5.134Z" fill="#ea997d"/>
    <path id="Path_676" data-name="Path 676" d="M1335.889,2454.964h0c-.106,0-.191-.222-.191-.328,0-.128.037-3.224,1.651-4.8a3.2,3.2,0,0,1,2.365-.947c3.9.066,4.73,4.587,4.741,4.633a.187.187,0,0,1-.16.214.2.2,0,0,1-.223-.161c-.027-.173-.789-4.272-4.369-4.333a2.819,2.819,0,0,0-2.088.8c-1.5,1.46-1.528,4.562-1.528,4.591-.006.106-.091.326-.2.326Z" fill="#cea289"/>
    <path id="Path_677" data-name="Path 677" d="M1324.4,2461.14a11.769,11.769,0,0,1-3.276-.519.192.192,0,1,1,.107-.369c7.57,2.2,9.423-3.17,11.219-8.36.809-2.333,1.571-4.536,2.844-5.831a3.587,3.587,0,0,1,3.036-1.2c3.165.347,5.977,4.795,6.094,4.984a.194.194,0,0,1-.33.2c-.026-.044-2.829-4.478-5.806-4.805a3.23,3.23,0,0,0-2.722,1.086c-1.209,1.233-1.961,3.4-2.749,5.688-1.5,4.317-3.159,9.122-8.417,9.122Z" fill="#cea289"/>
    <path id="Path_678" data-name="Path 678" d="M1265.925,2612.718s26.779,15.077,47.309,17.579,63.838,1.7,69.793,0l2.456-6.233-13.749-25.906s-48.667-3.079-62.181-3.592-45.748-3.918-43.628,18.152Z" fill="#1f0f26"/>
    <path id="Path_679" data-name="Path 679" d="M1320.606,2500.01s1.476,10.521,15.3,10.521,12.993-10.521,12.993-10.521,23.22,9.494,27.838,11.8c0,0-6.158,27.254-6.158,54.1,0,10.777.389,22.62.773,24.352s2.114,1.924,1.923,5,2.12,7.121,2.12,8.853-6.739-4.811-17.515-5.2-30.406-3.721-40.927-1.155-17.707,9.751-16.167,5.132,3.6-8.981,3.851-11.546-.756-2.742-1.284-8.725c-.639-7.313-4.618-46.957-9.663-70.821,0,0,19.156-9.879,26.917-11.8Z" fill="#53705c"/>
    <path id="Path_680" data-name="Path 680" d="M1280.265,2558.321s-4.474,19.053-2.168,23.992c2.4,5.12,20.014,7.2,37.721,8.548l1.731-8.572s-13.637-10.838-20.786-14.409l1.183-6.479-17.681-3.08Z" fill="#ea997d"/>
    <path id="Path_681" data-name="Path 681" d="M1282.46,2570.189l-.117-.041a.188.188,0,0,1-.032-.27c4.267-5.43,14.053-2.469,14.148-2.438a.192.192,0,1,1-.111.367c-.1-.029-9.632-2.913-13.739,2.308a.182.182,0,0,1-.149.074Z" fill="#d87e66"/>
    <path id="Path_682" data-name="Path 682" d="M1293.689,2511.813s-6.546,2.823-9.753,16.423-5.9,33.87-5.9,33.87,13.856,5,23.093,4.106c0,0,.9-46.316-7.437-54.4Z" fill="#53705c"/>
    <path id="Path_683" data-name="Path 683" d="M1298.334,2525.62c2.371,13.6,2.467,32.606,2.43,38.624.26.037.516.079.772.128.053-6.038,0-25.176-2.456-38.975-.25.071-.495.148-.746.223Z" fill="#405646"/>
    <path id="Path_684" data-name="Path 684" d="M1390.16,2558.321s4.475,19.053,2.168,23.992c-2.392,5.12-20.013,7.2-37.72,8.548l-1.731-8.572s13.642-10.838,20.78-14.409l-1.177-6.479,17.68-3.08Z" fill="#ea997d"/>
    <path id="Path_685" data-name="Path 685" d="M1387.966,2570.189a.2.2,0,0,1-.155-.074c-4.1-5.224-13.637-2.338-13.733-2.308a.192.192,0,1,1-.112-.367c.1-.031,9.887-2.992,14.149,2.438a.188.188,0,0,1-.032.27l-.117.041Z" fill="#d87e66"/>
    <path id="Path_686" data-name="Path 686" d="M1376.736,2511.813s6.547,2.823,9.754,16.423,5.9,33.87,5.9,33.87-13.855,5-23.092,4.106c0,0-.9-46.316,7.436-54.4Z" fill="#53705c"/>
    <path id="Path_687" data-name="Path 687" d="M1369.62,2564.509h.042c-.042-6.307.043-28.751,3.154-42.507-.261-.022-.522-.038-.778-.058-3.159,13.948-3.207,36.217-3.148,42.584.239-.012.485-.019.73-.019Z" fill="#405646"/>
    <path id="Path_688" data-name="Path 688" d="M1355.37,2633.268s3.873-17.006,18.761-16.709,13.781,20.539,13.781,20.539-11.4,66.025-12.124,79.348l-31.434-.686s8.273-68.121,11.016-82.492Z" fill="#313340"/>
    <path id="Path_689" data-name="Path 689" d="M1374.526,2611.393s1.347-8.039,12.507-3.324,29.831,9.334,25.692,25.5c0,0-3.074,8.944-21.744-1.253s-17.516-17.213-16.455-20.922Z" fill="#50678c"/>
    <path id="Path_690" data-name="Path 690" d="M1403.435,2619.074s-11.847-5.2-15.789-7.681c-6.675-4.19-10.153-2.394-14.132-1.5s-19.678-4.33-19.678-4.33l-2.935,15.222s18.5,1.874,23.124,3.8,25.164,12.317,25.164,12.317l4.246-17.83Z" fill="#ea997d"/>
    <path id="Path_691" data-name="Path 691" d="M1389.441,2634.98s-4.506-15.269,7.617-20.273c0,0,15.683,4.029,14.9,15.4-1.156,16.743-22.517,4.876-22.517,4.876Z" fill="#657ba6"/>
    <path id="Path_692" data-name="Path 692" d="M1271.748,2615.8s-16.461-5.767-14.484-20.526,21.968-11.377,21.968-11.377,69.618,12.711,82.775,14.938l-4.229,31.152s-72.058-9.841-86.03-14.187Z" fill="#313340"/>
    <path id="Path_693" data-name="Path 693" d="M1374.025,2597.194h-74.652l-3.271-48.475h80.831l-2.909,48.475Z" fill="#1f0f26"/>
    <path id="Path_694" data-name="Path 694" d="M1342.1,2572.562a5.582,5.582,0,1,0-5.582,5.582,5.581,5.581,0,0,0,5.582-5.582Z" fill="#aeb5ce"/>
    <path id="Path_695" data-name="Path 695" d="M1376.816,2550.317h-80.581l-.133-1.6h80.831l-.117,1.6Z" fill="#5c6177"/>
    <g id="Group_376" data-name="Group 376">
      <path id="Path_696" data-name="Path 696" d="M1356.193,2739.956l2.65.3,1.531-24.149-2.39-.052Z" fill="#665b55"/>
      <path id="Path_697" data-name="Path 697" d="M1356.632,2725.869l4.144.475a3.294,3.294,0,0,0,3.517-3.111,3.443,3.443,0,0,0-2.85-3.841l-4.144-.474a3.3,3.3,0,0,0-3.517,3.111,3.441,3.441,0,0,0,2.85,3.84" fill="#ff8f00"/>
      <path id="Path_698" data-name="Path 698" d="M1350.854,2753.007c-1.7,3.563-6.765,10.921-3.556,15.53,3.071,4.412,12.284,4.765,14.547-2.471.732-2.338.808-6.353.323-10.235a24.91,24.91,0,0,1-.431-11.648s1.4-10.589-6.357-6.353c0,0-3.718.882-2.748,7.235a22.059,22.059,0,0,1-1.778,7.942" fill="#021a26"/>
      <path id="Path_699" data-name="Path 699" d="M1350.692,2751.066c-1.7,3.563-6.441,10.568-3.233,15.177,3.071,4.412,11.8,4.941,14.063-2.294.731-2.339.485-6,0-9.884a36.989,36.989,0,0,1,.216-11.647c.47-2.295,1.376-7.765-6.358-6.353,0,0-3.718.882-2.748,7.235a23.715,23.715,0,0,1-1.94,7.766" fill="#4d4844"/>
    </g>
  </g>
</svg>
