<svg xmlns="http://www.w3.org/2000/svg" width="199.007" height="73.2" viewBox="0 0 199.007 73.2">
  <g id="Logos" transform="translate(-5067.086 -1499.231)">
    <path id="Path_13" data-name="Path 13" d="M5325.217,1521.074c-3.282.051-6.327.155-9.145.337a68.207,68.207,0,0,0-4.72-10.9c-3.69-6.626-8.42-11.284-14.437-11.284-8.581,0-15.594,8.068-20.831,23.98q-.517,1.57-1.01,3.275a3.843,3.843,0,0,0,.638,3.378,14.768,14.768,0,0,1,2.882,8.925,14.523,14.523,0,0,1-4.4,10.64,14.329,14.329,0,0,1-2.48,1.9,3.667,3.667,0,0,0-1.688,2.278,14.3,14.3,0,0,0-.11,1.57,5.524,5.524,0,0,0,5.123,5.9c.125.009.251.013.376.014h0a5.511,5.511,0,0,0,5.5-5.136,135.63,135.63,0,0,1,5.638-29.276c4.272-12.972,7.79-16.4,10.362-16.4,4.54,0,7.948,12.534,7.948,12.534-6.209,1.327-10.64,3.539-13.481,7.2-3.068,3.958-3.819,9.081-2.232,15.247,3.17,12.315,11.232,19.905,17.717,22.9a17.27,17.27,0,0,0,7.152,1.739,10.34,10.34,0,0,0,4.557-.988c4.177-2.035,4.7-7.189,4.185-14.846-.227-3.408-.718-7.342-1.407-11.412-.481-2.837-1.069-5.743-1.715-8.587-.136-.6-.28-1.2-.425-1.8,2.174-.1,4.316-.15,6.3-.176a5.512,5.512,0,0,0,5.435-5.589c0-.062,0-.124-.005-.186A5.605,5.605,0,0,0,5325.217,1521.074ZM5314,1533.64c-1.784.237-5.491,1.033-4.833,4.315a124.717,124.717,0,0,1,2.689,19.409.559.559,0,0,1-.817.534c-3.576-1.886-8.958-6.65-11.217-15.4-1.042-4.043-.057-5.315.267-5.734.938-1.209,3.859-3.186,13.8-4.182a.534.534,0,0,1,.585.478.488.488,0,0,1,0,.076.55.55,0,0,1-.48.5Z" transform="translate(-64.853)" fill="#3de580"/>
    <path id="Path_14" data-name="Path 14" d="M5176.816,1539.084a.756.756,0,0,0-.654-.846q-.047-.005-.094-.006h-5.793a.57.57,0,0,0-.568.57.6.6,0,0,0,.05.231,3.192,3.192,0,0,0,.412.686.5.5,0,0,1,0,.58.452.452,0,0,1-.637.05.473.473,0,0,1-.05-.05c-1.773-2.027-4.65-2.561-7.318-2.561-7.518,0-13.62,5.445-13.62,13.394s6.095,13.391,13.62,13.391a12.627,12.627,0,0,0,8.259-3.456.472.472,0,0,1,.577-.054.454.454,0,0,1,.123.63.276.276,0,0,1-.032.043,4.829,4.829,0,0,0-.841,1.3.569.569,0,0,0,.534.777h5.643a.569.569,0,0,0,.569-.569c0-.02,0-.039,0-.059C5176.207,1555.84,5175.267,1551.562,5176.816,1539.084Zm-14.654,18.342a6.36,6.36,0,1,1,6.257-6.359A6.149,6.149,0,0,1,5162.162,1557.426Z" transform="translate(-26.047 -12.313)" fill="#fff"/>
    <path id="Path_15" data-name="Path 15" d="M5266.719,1551.038a13.257,13.257,0,0,0-3.144-8.787,13.661,13.661,0,0,0-10.466-4.6c-7.518,0-13.621,5.443-13.621,13.391s6.095,13.391,13.621,13.391a14.317,14.317,0,0,0,6.69-1.6A12.989,12.989,0,0,0,5266.719,1551.038Zm-13.62,6.359a6.25,6.25,0,1,1,.011,0Z" transform="translate(-55.128 -12.284)" fill="#fff"/>
    <path id="Path_16" data-name="Path 16" d="M5221.949,1525.2h-6.313a.569.569,0,0,0-.564.484c-.443,3.007-.649,6.113-.726,7.627a2.532,2.532,0,0,0,.534,1.682l.059.077a.513.513,0,0,1,.016.62.494.494,0,0,1-.692.1l-.029-.024c-1.781-1.589-4.372-2.027-6.789-2.027-7.518,0-13.62,5.445-13.62,13.393s6.094,13.391,13.62,13.391a12.629,12.629,0,0,0,8.258-3.456.472.472,0,0,1,.577-.054.452.452,0,0,1,.123.63.3.3,0,0,1-.033.043,4.866,4.866,0,0,0-.841,1.3.569.569,0,0,0,.535.778h5.648a.566.566,0,0,0,.568-.564.38.38,0,0,0,0-.047c-.668-8.116-1.6-19.133.234-33.309a.569.569,0,0,0-.489-.639A.672.672,0,0,0,5221.949,1525.2Zm-14.513,28.218a6.36,6.36,0,1,1,6.263-6.359A6.149,6.149,0,0,1,5207.436,1553.416Z" transform="translate(-40.526 -8.303)" fill="#fff"/>
    <path id="Path_17" data-name="Path 17" d="M5086.109,1527.881a.782.782,0,0,0-.715-.465h-6.274a.78.78,0,0,0-.713.465,239.526,239.526,0,0,0-11.3,31.843.593.593,0,0,0,.417.727.613.613,0,0,0,.157.02h6.409a.754.754,0,0,0,.735-.571c.2-.8.609-2.417,1.231-4.645a.624.624,0,0,1,.6-.456h11.217a.609.609,0,0,1,.585.443c.625,2.233,1.036,3.854,1.234,4.658a.756.756,0,0,0,.734.571h6.41a.592.592,0,0,0,.592-.594.583.583,0,0,0-.02-.154A237.629,237.629,0,0,0,5086.109,1527.881Zm-7.569,19.1c.9-2.839,1.963-6.161,3.181-9.473a.591.591,0,0,1,.4-.384.553.553,0,0,1,.652.344c1.22,3.312,2.283,6.637,3.186,9.481a.63.63,0,0,1-.6.82h-6.231a.6.6,0,0,1-.577-.788Z" transform="translate(0 -9.013)" fill="#fff"/>
    <path id="Path_18" data-name="Path 18" d="M5134.161,1538.468l-6.124.04a.756.756,0,0,0-.718.534,142.67,142.67,0,0,1-5.237,14.916.58.58,0,0,1-1.069,0,142.1,142.1,0,0,1-5.223-14.914.757.757,0,0,0-.718-.534l-6.375-.043a.569.569,0,0,0-.572.566.6.6,0,0,0,.019.15c.836,3.143,4.484,15.925,10.05,24.471a.76.76,0,0,0,.637.342h5.432a.758.758,0,0,0,.636-.342c5.435-8.365,9.04-20.73,10-24.242a.756.756,0,0,0-.542-.921A.765.765,0,0,0,5134.161,1538.468Z" transform="translate(-13.122 -12.547)" fill="#fff"/>
    <text id="LIFE" transform="translate(5151.848 1569.431)" fill="#fff" font-size="17" font-family="Fieldwork-Geo-Light, Fieldwork Geo" font-weight="300" letter-spacing="0.2em" style="mix-blend-mode: normal;isolation: isolate"><tspan x="0" y="0">LIFE</tspan></text>
  </g>
</svg>
